<svg viewBox="0 0 40 40" fill="none" xmlns="http://www.w3.org/2000/svg" style="height: 32px; width: 32px; left: 17px; top: 25px; margin-right: 12px;"><g clip-path="url(#a)"><path d="M10.81 31.73h-.38l-1.88-1.88v-.38l2.88-2.86h2l.26.26v1.99l-2.88 2.87ZM8.55 10.52v-.37l1.88-1.88h.38l2.88 2.87v1.98l-.26.27h-2l-2.88-2.87ZM11.2 21.6H.23L0 21.36v-2.74l.23-.22H11.2l.23.22v2.74l-.23.22ZM39.77 21.6H28.8l-.23-.23v-2.74l.23-.22h10.97l.23.22v2.74l-.23.22ZM18.42 10.91V2.73l.23-.23h2.75l.23.23v8.18l-.23.23h-2.75l-.23-.23ZM18.42 37.27V29.1l.23-.23h2.75l.23.23v8.18l-.23.23h-2.75l-.23-.23Z" fill="#05BDBA"></path><path d="M25.14 25.68H22.4l-.23-.23v-6.38c0-1.14-.45-2.02-1.82-2.05-.71-.02-1.52 0-2.4.04l-.12.13v8.26l-.23.23h-2.74l-.23-.23v-10.9l.23-.23h6.17c2.4 0 4.34 1.93 4.34 4.32v6.81l-.23.23Z" fill="#014847"></path></g><defs><clipPath id="a"><path d="M0 0h40v40H0z" fill="#fff"></path></clipPath></defs></svg>
